<svg xmlns="http://www.w3.org/2000/svg" xmlns:xlink="http://www.w3.org/1999/xlink" viewBox="0 0 3840 2160"><defs><style>.cls-1,.cls-10,.cls-11,.cls-19{stroke-miterlimit:10;}.cls-1{fill:url(#Unbenannter_Verlauf_4);stroke:url(#Unbenannter_Verlauf_6);}.cls-2{fill:#34495e;}.cls-3{opacity:0.2;}.cls-4{fill:#fff;}.cls-5{fill:#bdc3c7;}.cls-6{fill:#150185;}.cls-7{fill:#f9f9f9;}.cls-8{fill:#f39c12;}.cls-9{fill:url(#Unbenannter_Verlauf_2);}.cls-10{fill:#f1c40f;}.cls-10,.cls-11{stroke:#000;}.cls-11{fill:none;}.cls-12{fill:#333;}.cls-13{fill:#2980b9;}.cls-14{fill:#d35400;}.cls-15{fill:#27ae60;}.cls-16{fill:#c0392b;}.cls-17{fill:#4d0e04;}.cls-18{fill:#e74c3c;}.cls-19{stroke:#fff;stroke-width:8px;}</style><linearGradient id="Unbenannter_Verlauf_4" x1="1865.17" y1="2697.16" x2="1995.95" y2="-1140.61" gradientUnits="userSpaceOnUse"><stop offset="0.13" stop-color="#fff"/><stop offset="1" stop-color="#3498db"/></linearGradient><linearGradient id="Unbenannter_Verlauf_6" y1="1073.5" x2="3841" y2="1073.5" gradientUnits="userSpaceOnUse"><stop offset="0" stop-color="#fff"/><stop offset="1"/></linearGradient><linearGradient id="Unbenannter_Verlauf_2" x1="921.69" y1="925.5" x2="954.46" y2="925.5" gradientUnits="userSpaceOnUse"><stop offset="0.13" stop-color="#fff"/><stop offset="1" stop-color="#f9f9f9"/></linearGradient></defs><title>Zeichenfläche 1</title><g id="Ebene_2" data-name="Ebene 2"><rect class="cls-1" x="0.5" y="-6.5" width="3840" height="2160"/></g><g id="Ebene_4" data-name="Ebene 4"><polygon class="cls-2" points="3503 1766 2539.72 1766 3021.24 897.22 3021.36 897 3503 1766"/><polygon class="cls-3" points="3503 1766 3021.24 1766 3021.24 897.22 3021.36 897 3503 1766"/><polygon class="cls-4" points="3021.26 897 2909 1096.16 2944.65 1152.2 2990.25 1114.72 3039.51 1245 3086.93 1162.91 3107 1189.68 3129.14 1087.51 3021.26 897"/><polygon class="cls-5" points="4286.38 1911.57 2858.37 1912.43 3571.63 675.31 4286.38 1911.57"/><polygon class="cls-3" points="4286.38 1911.57 3572.37 1912 3571.63 675.31 4286.38 1911.57"/><polygon class="cls-4" points="3571.63 675 3377.77 1011.55 3480.81 970.05 3519.91 1142.03 3571.82 996.68 3616.85 1049.97 3651.8 967.95 3696.85 1048.92 3713.8 953.91 3753.86 1056.89 3789.64 1052.38 3571.63 675"/></g><g id="Ebene_8" data-name="Ebene 8"><path class="cls-6" d="M1096.2,1302.74l-111.61-3.21-55.43-133.87L804.23,863.83l-2.51,3.59-50.48,72.06,44.89,121.94L848,1202.2l-41.23-1.87-13.59-34.66L648.5,797.08l-7.33,13.18-49.06,88.06-.41,14.22L635,1024.08l72,185.57s-36.43,13.34-78.62,42.94a367.58,367.58,0,0,0-44.91,37c-41.12,40-77.54,96.23-81.43,171.36-9.21,179.83,19,185.72,105.24,295.51l-182.61-5.26s-34.52-24-65.58-168.43l-8-50.3-2.82-.08-223.11-5.12L32.46,1739.91l-150.14-4.32L27.22,1404l323.39,8s.28-2.55,1.36-7.44c3.56-16.27,16.08-58.61,57.19-120,25.48-38,62-83.39,114.27-134.36L416.76,857.43l-2.08,4.8L236.85,1276l-152.66-2.41L425.35,491.94l.95-2.17.23-.51.19.53L555.56,823.18,561,823l84.15-149.63,2.21-3.91,84.9,225.76,6.12.17,65.33-95.8,2.51-3.7,78.75,192.67,3.59-1.41L936.59,908l2-3.24Z"/><path class="cls-6" d="M1123.79,1770.83c-.16.15-.32.35-.49.51l-.19-.53-86.94-216.92-283.08-8.16,3.49-121.23,376.4,10.84S1263.17,1629.33,1123.79,1770.83Z"/><path class="cls-3" d="M607.32,1756.47l-182.61-5.26s-34.52-24-65.58-168.43l-8-50.3-2.82-.08L352,1404.52c3.56-16.27,16.08-58.61,57.19-120l174.35,5c-41.12,40-77.54,96.23-81.43,171.36C492.87,1640.79,521.11,1646.68,607.32,1756.47Z"/><path class="cls-3" d="M1123.3,1771.34l-87.13-217.45-283.08-8.16,3.49-121.23,376.4,10.84S1263.47,1629.81,1123.3,1771.34Z"/><polygon class="cls-3" points="1096.2 1302.74 984.59 1299.53 929.16 1165.66 936.59 907.98 938.56 904.74 1096.2 1302.74"/><path class="cls-3" d="M1096.2,1302.74l-111.61-3.21-55.43-133.87L804.23,863.83l-53,75.65L848,1202.2l-41.23-1.87L648.5,797.08,592.11,898.32l-.41,14.22L707,1209.65s-66.31,24.25-123.53,79.95l-174.35-5c25.48-38,62-83.39,114.27-134.36L416.76,857.43l-2.08,4.8,10.73-372.48,1.31,0L555.56,823.18,561,823l86.36-153.54,84.9,225.76,6.12.17,67.84-99.5,78.75,192.67,3.59-1.41L936.59,908l2-3.24Z"/><path class="cls-3" d="M635,1024.08l72,185.57s-36.43,13.34-78.62,42.94Z"/><polygon class="cls-3" points="1096.2 1302.74 984.59 1299.53 929.16 1165.66 804.23 863.83 751.24 939.48 847.95 1202.2 806.73 1200.33 648.5 797.08 641.16 810.26 645.11 673.34 647.32 669.43 732.22 895.19 738.34 895.36 806.18 795.87 884.93 988.53 888.52 987.12 936.59 907.98 938.56 904.74 1096.2 1302.74"/><path class="cls-3" d="M1123.3,1771.34l-87.13-217.45-283.08-8.16,3.49-121.23,376.4,10.84S1263.47,1629.81,1123.3,1771.34Z"/><path class="cls-3" d="M1123.3,1771.34l-87.13-217.45-118.09-3.41,3.49-121.23,211.41,6.09S1263.47,1629.81,1123.3,1771.34Z"/><polygon class="cls-3" points="806.73 1200.33 793.13 1165.67 796.13 1061.42 847.95 1202.2 806.73 1200.33"/><polygon class="cls-3" points="804.23 863.83 801.72 867.42 803.67 799.56 806.18 795.87 884.93 988.53 888.52 987.12 936.59 907.98 938.56 904.74 1096.2 1302.74 984.59 1299.53 929.16 1165.66 804.23 863.83"/><path class="cls-3" d="M1123.79,1770.83l-.68,0-86.94-216.92-254-7.32,3.5-121.24,347.33,10S1263.17,1629.33,1123.79,1770.83Z"/><polygon class="cls-7" points="364.34 629.66 391.25 679.12 412.56 653.68 426.24 691.94 455.58 647.24 470.33 691.54 474.17 609.9 426.47 487.93 364.34 629.66"/><polygon class="cls-7" points="622.68 712.47 623 740 658 716.35 672.03 735.01 647 667 622.68 712.47"/><polygon class="cls-7" points="786.84 823.84 790 831 801 823.6 802.79 829.97 809 819.37 819.54 828.41 806 794 786.84 823.84"/><path class="cls-8" d="M1995,1604.8l-16.34,2.74-11.91-17.89-26.87-40.33-.26.6-5.28,11.94,10,16.45,11.59,19-6.06.91-3-4.65-31.65-49.48-.69,2.13-4.61,14.23.35,2.08,9.51,15,15.83,24.94a56.56,56.56,0,0,0-10.21,8.51,54.33,54.33,0,0,0-5.47,6.68c-4.83,7-8.52,16.23-6.92,27.28,3.83,26.43,8.11,26.48,23.82,40l-26.73,4.49s-5.71-2.5-14.39-22.62l-2.61-7.09-.42.07-32.61,5.67-7.38,33.62-22,3.69,11.55-52.43,47.29-8.14a9.64,9.64,0,0,1,0-1.13c0-2.47.65-9,4.87-19.1a126.92,126.92,0,0,1,12.77-22.84l-24-39.54-.17.76-14,65.33-22.29,4L1874,1506.1l.08-.34v-.08l.05.07,28.34,44.81.78-.18,7.94-24.2.21-.63,18.85,30.41.9-.15,6.75-15.82.26-.61,17,25.77.48-.31,4.72-12.9.2-.53Z"/><path class="cls-8" d="M2012.43,1672.12l0,.09-.05-.07-18.89-29.07-41.43,7-3-17.74,55.09-9.26S2028.65,1647.52,2012.43,1672.12Z"/><path class="cls-3" d="M1936.86,1684.89l-26.73,4.49s-5.71-2.5-14.39-22.62l-2.61-7.09-.42.07-3.14-18.72c0-2.47.65-9,4.87-19.1l25.52-4.28c-4.83,7-8.52,16.23-6.92,27.28C1916.87,1671.35,1921.15,1671.4,1936.86,1684.89Z"/><path class="cls-3" d="M2012.38,1672.21l-18.94-29.14-41.43,7-3-17.74,55.09-9.26S2028.7,1647.58,2012.38,1672.21Z"/><polygon class="cls-3" points="1994.95 1604.8 1978.61 1607.54 1966.7 1589.65 1960.36 1551.94 1960.56 1551.41 1994.95 1604.8"/><path class="cls-3" d="M1995,1604.8l-16.34,2.74-11.91-17.89-26.87-40.33-5.54,12.54,21.64,35.45-6.06.91-34.62-54.13-5.3,16.36.35,2.08,25.34,39.92a57.82,57.82,0,0,0-15.68,15.19l-25.52,4.28a126.92,126.92,0,0,1,12.77-22.84l-24-39.54-.17.76-9.15-54.52.19,0,28.34,44.81.78-.18,8.15-24.83,18.85,30.41.9-.15,7-16.43,17,25.77.48-.31,4.72-12.9.2-.53Z"/><path class="cls-3" d="M1919.81,1577.51l15.83,24.94a56.56,56.56,0,0,0-10.21,8.51Z"/><polygon class="cls-3" points="1994.95 1604.8 1978.61 1607.54 1966.7 1589.65 1939.83 1549.32 1934.29 1561.86 1955.93 1597.31 1949.88 1598.22 1915.24 1544.09 1914.56 1546.22 1911.19 1526.18 1911.4 1525.55 1930.25 1555.96 1931.15 1555.81 1938.16 1539.38 1955.16 1565.15 1955.64 1564.84 1960.36 1551.94 1960.56 1551.41 1994.95 1604.8"/><path class="cls-3" d="M2012.38,1672.21l-18.94-29.14-41.43,7-3-17.74,55.09-9.26S2028.7,1647.58,2012.38,1672.21Z"/><path class="cls-3" d="M2012.38,1672.21l-18.94-29.14-17.28,2.9-3-17.74,30.94-5.2S2028.7,1647.58,2012.38,1672.21Z"/><polygon class="cls-3" points="1949.88 1598.22 1946.9 1593.57 1944.34 1578.31 1955.93 1597.31 1949.88 1598.22"/><polygon class="cls-3" points="1939.83 1549.32 1939.57 1549.92 1937.9 1539.98 1938.16 1539.38 1955.16 1565.15 1955.64 1564.84 1960.36 1551.94 1960.56 1551.41 1994.95 1604.8 1978.61 1607.54 1966.7 1589.65 1939.83 1549.32"/><path class="cls-3" d="M2012.43,1672.12l-.1,0-18.89-29.07-37.18,6.25-3-17.75,50.84-8.54S2028.65,1647.52,2012.43,1672.12Z"/><polygon class="cls-9" points="921.69 931.17 929 949 934 931.7 942 947.92 948 936.02 954.46 944.53 938.07 902 921.69 931.17"/></g><g id="Ebene_5" data-name="Ebene 5"><polygon class="cls-8" points="1304 1788.57 1037.78 1788.57 1170.89 1587 1170.99 1587.16 1304 1788.57"/><polygon class="cls-3" points="1304 1788.57 1170.99 1788.57 1170.99 1587.16 1304 1788.57"/></g><g id="Ebene_3" data-name="Ebene 3"><path class="cls-10" d="M-45.5,1395.5s438-11,857,244,999,48,999,48,800-161,1028-66,625-72,625-72,76-96,297,17,261,661,261,661l-2830,151-1296-51Z"/><rect class="cls-11" x="0.5" y="-0.5" width="3840" height="2160"/></g><g id="Ebene_7" data-name="Ebene 7"><polygon class="cls-12" points="798.43 1816.46 803.27 1811.87 769.74 1776.62 764.91 1781.21 798.43 1816.46"/><polygon class="cls-12" points="751.4 1785.44 784.49 1777.44 783.25 1772.38 750.16 1780.39 751.4 1785.44"/><path class="cls-13" d="M752.46,1785.93l2.14-.56-1.51-6.43-2.3.55Zm21.29-5.26,2.15-.55-1.52-6.43-2.29.55Zm8-1.93,2.14-.55-1.51-6.44-2.3.56ZM760.27,1784l2.14-.55L760.9,1777l-2.3.55Z"/><path class="cls-12" d="M646,1783l-1.44,2.55-3.5-.09-.07,2.89-3.09,1.6,1.46,2.63-1.75,3L640,1797l-.09,3.5,3,.07,1.6,3.09,2.62-1.46,3,1.9,1.43-2.55,3.5.09.07-2.89,3.09-1.6-1.46-2.63,1.75-3-2.55-1.43.09-3.5-2.89-.07-1.75-3.09-2.63,1.45Zm-.6-.48-4.2-2.54-.11,4.57,3,.07Zm13.35,14,4.32-2.33-3.9-2.38-1.58,2.55Zm-13-14.64,2.54-4.35-7-12.51-.2,14.16Zm3-5.1,7.63-12.9,1-60.12.76,0-1,58.75,30-50.11.6.32-30.67,51.31-.23,15.22L670,1772l30.83-51.61.76.32-30.19,50.41,51-28.42.45.62-52.2,29.15-7.79,13,14.92.22,52.35-29.29.29.61-51.27,28.56,58.29,1v.76l-59.67-1-13.28,7.43,12.9,7.79,60,1,0,.76-58.6-1,50,30-.32.6-51.15-30.82-15.22-.23,7.28,13.13,51.3,31-.32.6-50.25-30.18,28.26,51.1-.62.29-29-52.19-13.05-7.94-.23,15.07,29.14,52.5-.62.44-28.41-51-1,58.44h-.76l1-59.82-7.43-13.28L639.62,1823l-1,60.11-.76,0,1-58.74-30,50.1-.6-.32,30.67-51.31.23-15.22L626,1814.89l-30.83,51.6-.6-.32,30.19-50.4-51,28.42-.44-.62,52.2-29.15,7.78-13.05-14.91-.22L566,1830.29l-.29-.62L617,1801.11l-58.29-1,0-.76,59.66,1,13.28-7.44-12.9-7.78-59.81-1v-.76l58.6,1-50-30,.32-.6,51.15,30.82,15.22.23L627,1771.67l-51.75-31.14.47-.59L626,1770.12,597.76,1719l.61-.29,29,52.34,13.06,7.79.22-14.92-29.14-52.5.62-.44,28.4,51.42,1-58.45.76,0-1,59.82Zm7.75-11.38-7.16,12.16,2.62,4.78,4.48-2.47Zm-7.79,12.9-2.38,3.9,2.55,1.59,2.16-1.16Zm10.2,12.44,2.54-4.2-4.57-.11-.07,3Zm3-5,7.31-12.3-12.35,6.85-.13,5.32Zm.44.77-2.7,4.66,4.35,2.54,12.51-7Zm-21.9-7.09L628.1,1772l6.85,12.36,5.32.13Zm-.15,5.93-5-.12,2.18,4,2.63-1.46.06-2.43Zm15.83.25.13-5-4,2.34,1.46,2.63Zm-18.85,4.7-4.32,2.33,4.05,2.38,1.59-2.54Zm-.43-.77-2.48-4.48-14.46-.21L632,1792.2Zm.29,6.55-2.54,4.2,4.56.12.08-3Zm-.6-.47-4.35-2.54-12.51,7,14.16.2Zm8.31,8.58,2.48,4.33,2.39-3.9-2.7-1.59Zm-.61.29-4.48,2.48-.21,14.31,7.16-12.16Zm-17.43,8.86,12.35-6.85.14-5.33-5-.12Zm13.12-7.14,4-2.33-1.46-2.63-2.58-.06Zm10.86-1.86,4.2,2.54.11-4.56-3-.08Zm-.47.6-2.55,4.35,7,12.51.2-14.15Zm5.41-3.52,5,.13-2.19-4L655.9,1799l-.06,2.44Zm0,.76-.13,5,12.3,7.47L661,1802.37Zm20.26-.4-12-7.31-4.79,2.62,2.48,4.48Z"/><path class="cls-12" d="M650.74,1682.89c-60.87-1.53-111.56,46.69-113.09,107.86s46.68,111.86,107.55,113.39,111.56-46.85,113.09-107.87C759.82,1735.1,711.6,1684.41,650.74,1682.89Zm-5.1,203.6a93.15,93.15,0,1,1,95.3-90.8A93.12,93.12,0,0,1,645.64,1886.49Z"/><path class="cls-5" d="M650.37,1697.34c-53-1.32-96.79,40.67-98.11,93.63s40.35,97.08,93.31,98.41a96.05,96.05,0,0,0,4.8-192Zm-4.64,185.49a89.5,89.5,0,1,1,91.56-87.23A89.28,89.28,0,0,1,645.73,1882.83Z"/><path class="cls-5" d="M647.71,1803.56a10,10,0,1,0-9.79-10.3,10.15,10.15,0,0,0,9.79,10.3Z"/><path class="cls-12" d="M1030.88,1691c-60.87-1.52-111.41,46.7-113.09,107.87-1.53,61.17,46.69,111.86,107.55,113.38,61,1.53,111.57-46.84,113.09-107.86C1140,1743.25,1091.75,1692.56,1030.88,1691Zm-5.1,203.75a93.23,93.23,0,1,1,95.31-91C1119.8,1855.27,1077.21,1896.07,1025.78,1894.78Z"/><path class="cls-5" d="M1027.86,1811.7a10,10,0,1,0-9.79-10.29,10.14,10.14,0,0,0,9.79,10.29Z"/><path class="cls-12" d="M1027.91,1809.72a8.22,8.22,0,1,0-8-8.42,8.38,8.38,0,0,0,8,8.42Z"/><path class="cls-5" d="M1030.52,1705.64c-52.81-1.32-96.79,40.52-98.27,93.62a95.9,95.9,0,1,0,98.27-93.62ZM1025.88,1891a89.43,89.43,0,0,1-87.09-91.71c1.39-49.3,42.42-88.47,91.57-87.24a89.5,89.5,0,0,1-4.48,179Z"/><path class="cls-12" d="M1026.09,1791.1l-1.43,2.4-3.5-.09-.07,3-3.09,1.6,1.46,2.62-1.9,3,2.55,1.43-.09,3.5,2.89.07,1.6,3.09,2.62-1.46,3,1.91,1.44-2.56,3.5.09.07-2.89,3.08-1.6-1.45-2.62,1.75-3-2.55-1.59.09-3.5-2.9-.07-1.75-3.09-2.62,1.45Zm-.59-.47-4.2-2.54-.12,4.56,3,.08Zm13.5,14,4.32-2.33-3.9-2.38-1.58,2.55ZM1026,1790l2.54-4.35-7-12.51-.21,14.16Zm2.87-5.1,7.63-12.91,1-60,.76,0-1,58.75,30-50.11.6.32-30.67,51.31-.23,15.22,13.13-7.29,30.83-51.6.59.47-30.19,50.4,51-28.41.29.61-52.19,29-7.79,13,14.92.22,52.34-29.14.45.62-51.27,28.56,58.44,1,0,.77-59.66-1-13.28,7.43,12.9,7.79,60,.89,0,.76-58.59-1,50,30-.32.6-51.16-30.67-15.22-.23,7.29,13.13,51.45,30.82-.32.6-50.25-30.18,28.26,51.1-.62.44-29-52-13-7.94-.23,15.06,29.14,52.5-.62.44-28.41-51.41-1,58.44-.76,0,1-59.81-7.44-13.28-7.63,12.9-1,60.12-.77,0,1-58.75-30,50.26-.59-.47,30.67-51.31.22-15.22-13.12,7.29-30.83,51.6-.6-.32,30.19-50.4L953.77,1852l-.29-.61,52-29,7.79-13.05-15.07-.23-52.34,29.14-.44-.62,51.26-28.56-58.29-1,0-.76,59.66,1,13.28-7.43-12.9-7.79-60-1,0-.76,58.59,1-50-30,.32-.6,51.15,30.82,15.22.23-7.28-13.13-51.46-31,.32-.6,50.26,30.19-28.42-51.11.62-.44,29,52.34,13.06,7.79.22-14.92L991,1719.42l.62-.44,28.4,51.42,1-58.45.76,0-1,59.81Zm7.74-11.38-7.31,12.15,2.62,4.79,4.48-2.48Zm-7.63,12.9-2.39,4,2.55,1.59,2.16-1.16Zm10,12.44,2.55-4.36-4.57-.11-.07,3Zm3-5,7.31-12.31-12.35,6.85-.13,5.33Zm.44.77-2.71,4.65,4.35,2.55,12.51-7Zm-21.9-7.1-12.31-7.31,6.85,12.35,5.33.14Zm-.15,5.94-5-.13,2.33,4,2.63-1.46.06-2.43Zm15.83.24.12-4.87-4,2.19,1.45,2.62Zm-18.85,4.71-4.32,2.48,3.89,2.38,1.59-2.7Zm-.28-.77-2.48-4.48-14.31-.2,12.15,7.3Zm.14,6.55-2.55,4.2,4.57.11.08-3Zm-.61-.32-4.34-2.7-12.51,7,14.15.2Zm8.47,8.43,2.33,4.33,2.38-3.9-2.55-1.59Zm-.62.45-4.47,2.47-.21,14.31,7.31-12.15Zm-17.57,8.69,12.35-6.85.14-5.47-5-.13Zm13.12-7.13,4-2.18-1.46-2.63-2.43-.06Zm10.86-1.86,4.19,2.54.12-4.72-3-.07Zm-.48.6-2.54,4.35,7,12.51.21-14.16Zm5.57-3.52,5,.13-2.33-4-2.63,1.46-.06,2.43Zm0,.76-.12,5,12.3,7.47-6.85-12.35Zm20.11-.41-12.15-7.31-4.78,2.62,2.47,4.48Z"/><path class="cls-5" d="M1031.15,1680.38a122,122,0,0,1,23.68,2.88l-1.54,6.81a119.83,119.83,0,0,0-22.32-2.69c-62.84-1.57-115.1,48.28-116.67,111.28a106.91,106.91,0,0,0,1.05,18.6l113.18-13.92.11,1.38-113,13.92a115.49,115.49,0,0,0,5.54,21.91l-6.6,2.42a121.66,121.66,0,0,1-7.12-44.33c1.53-67,57.06-119.93,123.71-118.26Z"/><path class="cls-5" d="M651,1672.24a121.05,121.05,0,0,1,117.94,124.15,116.12,116.12,0,0,1-3.88,27.31l-6.8-1.85a110.2,110.2,0,0,0,3.53-25.64c1.58-63-48.12-115.4-111-117a113.56,113.56,0,0,0-93.71,45.31l91.65,73.25-.79,1-91.5-73.24A119.63,119.63,0,0,0,542,1751.88l-6.48-2.6a120.8,120.8,0,0,1,115.51-77Z"/><path class="cls-12" d="M647.76,1801.58a8.22,8.22,0,1,0-8-8.42,8.2,8.2,0,0,0,8,8.42Z"/><path class="cls-13" d="M758.71,1670.06l-106.94,123.4L794,1811.79ZM792.59,1758c24.79,13.26,53.19,16.26,84.85,10.5,28.87-34,56.29-83.4,86.3-132.59L951.2,1595.7l11.66-3.66,1.12,4.13,19.18-18.24c6.55-6.23,4.88-12.37-3-15l6.74-7.75c12.32,6.71,12.59,20.26,6,26.8l-25.75,24.78L991,1683.18l-.61.29,42.07,119.67c.85,2.46-6.07,5.33-6.93,3l-45.12-119.59-.92.28-11.41-37c-70,114.73-96.92,173.59-164.63,171.9L647.2,1799.58c-1.82-.19-5.68-3.94-2.22-8.27L756.37,1659.8,745.85,1618c-2-4.62-13.34-2.47-14.72-8.29l15.13-2,8,.81,3.19,6.17Zm71.87,24.34c-23.37,2.91-46.35,2.34-68.14-9l9.39,38.45c21.17-.23,40.33-11.32,58.75-29.43Z"/><path class="cls-12" d="M980.45,1686.42l10-3.1L1032.49,1803c.86,2.45-6.07,5.33-6.92,3Z"/><path class="cls-12" d="M962.05,1630.69l11.8-3-6.48-21,25.74-24.78c6.56-6.38,6.29-19.94-6-26.8l-6.74,7.75c7.85,2.79,9.53,8.77,3,15L964.13,1596l-1.11-4.14-11.67,3.66Z"/><path class="cls-5" d="M767.44,1655.81l-11.64,2.61L745.7,1618c-2-4.62-13.34-2.47-14.72-8.29l15.13-2.06,8,.81,3.19,6.17Z"/><polygon class="cls-12" points="765.51 1647.7 765.51 1647.7 753.87 1650.3 745.7 1617.97 757.35 1614.76 765.51 1647.7"/><path class="cls-12" d="M786.65,1600c-10-.56-18.7-1.23-26.46,4.82-16.46,12.53-26.42,9.23-38,4.53-21.7-8.92-21.12-26-12.06-23.14,21.46,6.47,39.39,2,61,1.22,21.49-1,22.52,12.9,15.52,12.57Z"/><path class="cls-12" d="M980.55,1566.59a7.79,7.79,0,0,1,7.5-13.66h0a7.79,7.79,0,1,1-7.5,13.66Z"/><path class="cls-12" d="M783,1784.1c.92,0,1.25-1,2.46-1,1.37,0,1.65,1.11,2.56,1.13l0,1.22c-.91,0-1.24,1-2.46,1s-1.49-1.1-2.56-1.13Z"/><path class="cls-12" d="M777.93,1784c.91,0,1.25-1,2.62-1s1.49,1.1,2.56,1.13l0,1.21c-.92,0-1.25,1-2.62,1s-1.49-1.1-2.56-1.13Z"/><path class="cls-12" d="M772.91,1783.85c.91,0,1.24-1,2.46-1s1.65,1.1,2.56,1.13l0,1.06c-.92,0-1.25,1-2.47,1-1.37,0-1.49-1.11-2.56-1.13Z"/><path class="cls-12" d="M767.89,1783.73c.91,0,1.24-1,2.61-1s1.5,1.11,2.56,1.13l0,1.22c-.91,0-1.24,1-2.61,1s-1.5-1.1-2.56-1.13Z"/><path class="cls-12" d="M762.86,1783.75c.92,0,1.25-1,2.46-1,1.37,0,1.65,1.1,2.57,1.13l0,1.21c-.91,0-1.24,1-2.46,1s-1.49-1.1-2.56-1.13Z"/><path class="cls-12" d="M757.84,1783.63c.92,0,1.25-1,2.62-1s1.49,1.1,2.56,1.13l0,1.06c-.91,0-1.24,1-2.61,1s-1.5-1.1-2.56-1.13Z"/><path class="cls-12" d="M752.82,1783.5c.91,0,1.24-1,2.46-1s1.65,1.1,2.56,1.13l0,1.21c-.91,0-1.24,1-2.46,1s-1.49-1.11-2.56-1.13Z"/><path class="cls-12" d="M747.8,1783.37c.91,0,1.24-1,2.61-1s1.5,1.11,2.56,1.13l0,1.22c-.91,0-1.24,1-2.61,1s-1.5-1.1-2.41-1.12Z"/><path class="cls-12" d="M742.78,1783.25c.91,0,1.24-1,2.46-1s1.65,1.11,2.56,1.13l0,1.07c-.91,0-1.24,1-2.61,1s-1.5-1.1-2.56-1.13l.18-1.06Z"/><path class="cls-12" d="M737.75,1783.28c.92,0,1.25-1,2.62-1s1.49,1.11,2.56,1.13l0,1.22c-.92,0-1.25,1-2.62,1s-1.49-1.1-2.41-1.12Z"/><path class="cls-12" d="M732.73,1783.15c.91,0,1.24-1,2.46-1s1.65,1.1,2.56,1.13l0,1.21c-.91,0-1.24,1-2.61,1s-1.5-1.1-2.56-1.13l.18-1.21Z"/><path class="cls-12" d="M727.71,1783c.91,0,1.24-1,2.61-1s1.5,1.11,2.56,1.13l0,1.07c-.92,0-1.25,1-2.62,1s-1.49-1.1-2.41-1.13Z"/><path class="cls-12" d="M722.69,1782.9c.91,0,1.24-1,2.46-1s1.65,1.11,2.56,1.13l0,1.22c-.91,0-1.25,1-2.61,1s-1.5-1.1-2.56-1.13l.18-1.21Z"/><path class="cls-12" d="M717.66,1782.92c.92,0,1.25-1,2.62-1s1.49,1.11,2.56,1.13l0,1.22c-.92,0-1.25,1-2.62,1s-1.49-1.1-2.41-1.12Z"/><path class="cls-12" d="M712.64,1782.8c.91,0,1.25-1,2.61-1s1.5,1.1,2.41,1.12l0,1.07c-.92,0-1.25,1-2.62,1s-1.49-1.1-2.56-1.13l.18-1.06Z"/><path class="cls-12" d="M707.62,1782.67c.91,0,1.24-1,2.61-1s1.5,1.11,2.56,1.13l0,1.22c-.91,0-1.24,1-2.61,1s-1.5-1.1-2.41-1.13Z"/><path class="cls-12" d="M702.6,1782.55c.91,0,1.24-1,2.61-1s1.5,1.1,2.41,1.12l0,1.07c-.91,0-1.24,1-2.61,1s-1.5-1.1-2.56-1.13l.18-1.06Z"/><path class="cls-12" d="M697.58,1782.42c.91,0,1.24-1,2.61-1s1.5,1.1,2.56,1.13l0,1.07c-.91,0-1.24,1-2.46,1s-1.64-1.11-2.56-1.13Z"/><path class="cls-12" d="M692.55,1782.45c.91,0,1.25-1,2.61-1s1.5,1.1,2.41,1.12l0,1.22c-.91,0-1.24,1-2.61,1s-1.5-1.1-2.56-1.13l.18-1.21Z"/><path class="cls-12" d="M687.53,1782.32c.91,0,1.24-1,2.61-1s1.5,1.11,2.56,1.13l0,1.07c-.92,0-1.25,1-2.46,1-1.37,0-1.65-1.11-2.56-1.13Z"/><path class="cls-12" d="M682.51,1782.2c.91,0,1.24-1,2.61-1s1.5,1.1,2.41,1.12l0,1.07c-.91,0-1.24,1-2.61,1s-1.5-1.11-2.56-1.13l.18-1.06Z"/><path class="cls-12" d="M677.49,1782.07c.91,0,1.24-1,2.61-1s1.5,1.1,2.56,1.13l0,1.22c-.91,0-1.24,1-2.46,1s-1.65-1.1-2.56-1.13Z"/><path class="cls-12" d="M672.47,1782c.91,0,1.24-1,2.61-1s1.49,1.1,2.41,1.12l0,1.07c-.91,0-1.24,1-2.61,1s-1.5-1.11-2.56-1.13l.18-1.06Z"/><path class="cls-12" d="M667.44,1782c.91,0,1.24-1,2.46-1s1.65,1.1,2.56,1.13l0,1.21c-.91,0-1.24,1-2.46,1s-1.65-1.11-2.56-1.13Z"/><path class="cls-12" d="M662.42,1781.85c.91,0,1.24-1,2.61-1s1.5,1.1,2.56,1.13l0,1.21c-.91,0-1.24,1-2.61,1s-1.5-1.1-2.56-1.13Z"/><path class="cls-12" d="M657.4,1781.72c.91,0,1.24-1,2.46-1s1.65,1.1,2.56,1.13l0,1.06c-.91,0-1.24,1-2.46,1s-1.65-1.11-2.56-1.13Z"/><path class="cls-12" d="M652.38,1781.59c.91,0,1.24-1,2.61-1s1.49,1.11,2.56,1.13l0,1.22c-.91,0-1.25,1-2.61,1s-1.5-1.1-2.56-1.13Z"/><path class="cls-12" d="M647.35,1781.47c.92,0,1.25-1,2.62-1s1.49,1.1,2.41,1.12l0,1.22c-.92,0-1.25,1-2.47,1s-1.64-1.11-2.56-1.13Z"/><path class="cls-12" d="M642.9,1783c.92-.28.79-1.35,2-1.77s1.82.5,2.74.22l.43,1.07c-.92.28-.8,1.35-2,1.78s-1.81-.5-2.73-.22Z"/><path class="cls-12" d="M639.48,1786c.77-.59.19-1.52,1.12-2.41,1.09-.88,2-.1,2.61-.69l.74.93c-.78.59-.19,1.52-1.13,2.41-1.08.73-2,.1-2.61.69Z"/><path class="cls-12" d="M637.25,1789.9c.47-.75-.42-1.54.21-2.59s1.7-.87,2.18-1.62l1.05.48c-.48.75.42,1.54-.22,2.59s-1.69.87-2.17,1.62Z"/><path class="cls-12" d="M636.68,1794.3c.17-.91-.88-1.24-.7-2.46s1.25-1.34,1.43-2.25l1.21.19c-.18.91.88,1.24.7,2.45s-1.25,1.34-1.43,2.25Z"/><path class="cls-12" d="M637.94,1798.59c-.28-.92-1.35-.79-1.77-2s.8-1.66.52-2.58l1.22-.27c.28.92,1.35.79,1.63,2s-.65,1.66-.53,2.57Z"/><path class="cls-12" d="M640.59,1802.16c-.59-.78-1.51-.34-2.4-1.43-.73-1.08,0-1.83-.54-2.6l.93-.59c.59.78,1.66.35,2.4,1.43s-.05,1.83.54,2.6Z"/><path class="cls-12" d="M644.49,1804.69c-.75-.47-1.53.27-2.73-.52-1-.79-.72-1.69-1.47-2.17l.63-.9c.75.48,1.69-.26,2.73.53,1.05.63.72,1.69,1.47,2.17Z"/><path class="cls-12" d="M649.33,1806c-.91-.32-1.54.73-2.75.39-1.36-.34-1.19-1.4-2.09-1.73l.33-1c.91.17,1.39-.73,2.75-.39s1.18,1.4,2.09,1.73Z"/><path class="cls-12" d="M654.17,1807.37c-.91-.17-1.54.72-2.75.39s-1.19-1.4-2.09-1.73l.33-1c.9.32,1.39-.73,2.75-.39s1.18,1.4,2.09,1.72Z"/><path class="cls-12" d="M659,1808.56c-.91-.18-1.54.72-2.75.39s-1.18-1.4-2.09-1.73l.33-1.06c.91.33,1.39-.72,2.75-.39s1.18,1.4,2.09,1.73Z"/><path class="cls-12" d="M663.84,1810.05c-.9-.33-1.38.73-2.75.39-1.21-.34-1.18-1.4-2.08-1.73l.33-1.06c.91.18,1.38-.72,2.75-.38,1.21.33,1.18,1.4,2.09,1.72Z"/><path class="cls-12" d="M668.68,1811.39c-.91-.18-1.39.73-2.75.39-1.21-.34-1.18-1.4-2.09-1.73l.34-1.06c.9.33,1.38-.72,2.75-.39,1.21.34,1.18,1.4,2.08,1.73Z"/><path class="cls-12" d="M673.52,1812.73c-.91-.18-1.39.73-2.75.39s-1.18-1.4-2.09-1.73l.33-1.06c.91.33,1.54-.72,2.75-.39s1.19,1.4,2.09,1.73Z"/><path class="cls-12" d="M678.21,1814.06c-.91-.32-1.39.73-2.75.39s-1.18-1.4-2.09-1.73l.33-1c.91.17,1.54-.73,2.75-.39s1.18,1.4,2.09,1.73Z"/><path class="cls-12" d="M683.05,1815.4c-.91-.32-1.39.73-2.75.39s-1.19-1.4-2.09-1.73l.33-1c.91.17,1.54-.73,2.75-.39,1.36.34,1.18,1.4,2.09,1.73Z"/><path class="cls-12" d="M687.89,1816.74c-.91-.17-1.39.73-2.75.39s-1.19-1.4-2.09-1.73l.33-1.05c.9.32,1.39-.73,2.75-.39s1.18,1.4,2.09,1.73Z"/><path class="cls-12" d="M692.73,1818.08c-.91-.17-1.55.72-2.76.39-1.36-.34-1.18-1.4-2.08-1.73l.33-1c.9.32,1.39-.73,2.75-.39s1.18,1.4,2.09,1.72Z"/><path class="cls-12" d="M697.56,1819.42c-.9-.33-1.54.72-2.75.39s-1.18-1.4-2.08-1.73l.33-1.06c.91.18,1.38-.72,2.75-.38,1.21.33,1.18,1.4,2.08,1.72Z"/><path class="cls-12" d="M702.4,1820.76c-.9-.33-1.54.72-2.75.39s-1.18-1.4-2.09-1.73l.33-1.06c.91.18,1.39-.72,2.76-.38,1.21.33,1.18,1.4,2.08,1.72Z"/><path class="cls-12" d="M707.24,1822.1c-.91-.18-1.39.73-2.75.39s-1.18-1.4-2.09-1.73l.33-1.06c.91.33,1.39-.72,2.75-.39s1.19,1.4,2.09,1.73Z"/><path class="cls-12" d="M712.08,1823.59c-.91-.33-1.39.73-2.75.39s-1.19-1.4-2.09-1.73l.33-1.06c.91.18,1.39-.72,2.75-.38,1.21.33,1.18,1.4,2.09,1.72Z"/><path class="cls-12" d="M716.76,1824.93c-.9-.33-1.39.72-2.75.38s-1.18-1.4-2.09-1.72l.34-1.06c.9.17,1.38-.73,2.75-.39,1.21.34,1.18,1.4,2.08,1.73Z"/><path class="cls-12" d="M721.6,1826.27c-.91-.18-1.39.72-2.75.38s-1.18-1.4-2.09-1.72l.33-1.06c.91.33,1.55-.72,2.75-.39,1.37.34,1.19,1.4,2.09,1.73Z"/><path class="cls-12" d="M726.44,1827.6c-.91-.17-1.39.73-2.75.39s-1.18-1.4-2.09-1.72l.33-1.06c.91.33,1.54-.72,2.75-.39,1.37.34,1.19,1.4,2.09,1.73Z"/><path class="cls-12" d="M731.28,1828.94c-.91-.32-1.39.73-2.75.39s-1.18-1.4-2.09-1.73l.33-1c.91.17,1.39-.73,2.75-.39s1.19,1.4,2.09,1.73Z"/><path class="cls-12" d="M736.12,1830.28c-.91-.32-1.54.73-2.75.39s-1.18-1.4-2.09-1.73l.33-1c.91.17,1.39-.73,2.75-.39s1.18,1.4,2.09,1.73Z"/><path class="cls-12" d="M741,1831.62c-.91-.17-1.54.73-2.75.39-1.36-.34-1.19-1.4-2.09-1.73l.33-1c.91.32,1.39-.73,2.75-.39s1.18,1.4,2.09,1.72Z"/><path class="cls-12" d="M745.8,1833c-.91-.33-1.54.72-2.75.39s-1.19-1.4-2.09-1.73l.33-1.06c.9.33,1.39-.72,2.75-.23,1.21.33,1.18,1.4,2.08,1.73Z"/><path class="cls-12" d="M750.64,1834.3c-.91-.33-1.39.73-2.76.39-1.2-.34-1.18-1.4-2.08-1.73l.33-1.06c.91.18,1.39-.72,2.75-.38s1.18,1.4,2.09,1.72Z"/><path class="cls-12" d="M755.47,1835.64c-.9-.17-1.38.73-2.75.39-1.21-.34-1.18-1.4-2.08-1.73l.33-1.06c.9.33,1.38-.72,2.75-.38,1.21.33,1.18,1.4,2.09,1.72Z"/><path class="cls-12" d="M760.16,1837c-.91-.18-1.39.72-2.75.38-1.21-.33-1.18-1.4-2.09-1.72l.33-1.06c.91.33,1.39-.73,2.75-.39s1.19,1.4,2.09,1.73Z"/><path class="cls-12" d="M765,1838.31c-.91-.32-1.39.73-2.75.39s-1.18-1.4-2.09-1.72l.33-1.06c.91.17,1.54-.72,2.75-.39s1.19,1.4,2.09,1.73Z"/><path class="cls-12" d="M769.84,1839.65c-.91-.32-1.39.73-2.75.39s-1.18-1.4-2.09-1.73l.33-1c.91.17,1.54-.73,2.75-.39s1.18,1.4,2.09,1.73Z"/><path class="cls-12" d="M774.68,1841c-.91-.17-1.39.73-2.75.39s-1.19-1.4-2.09-1.73l.33-1.05c.91.32,1.54-.73,2.75-.39,1.36.34,1.18,1.4,2.09,1.73Z"/><path class="cls-12" d="M779.51,1842.48c-.9-.32-1.39.73-2.74.24-1.37-.34-1.19-1.4-2.09-1.73l.33-1c.9.32,1.39-.73,2.75-.24,1.36.34,1.18,1.4,2.08,1.73Z"/><path class="cls-12" d="M784.35,1843.82c-.9-.32-1.54.73-2.75.39-1.36-.34-1.18-1.4-2.09-1.73l.33-1c.91.17,1.39-.73,2.75-.39s1.19,1.4,2.09,1.73Z"/><path class="cls-12" d="M789.19,1845.16c-.91-.17-1.54.73-2.75.39s-1.18-1.4-2.09-1.73l.33-1c.91.32,1.39-.73,2.75-.39s1.19,1.4,2.09,1.73Z"/><path class="cls-12" d="M794,1846.5c-.91-.17-1.39.73-2.75.39-1.21-.33-1.18-1.4-2.09-1.73l.33-1.05c.91.32,1.39-.73,2.75-.39s1.18,1.4,2.09,1.72Z"/><path class="cls-12" d="M798.75,1846.62c-.92,0-1.25,1-2.61.85-1.37,0-1.5-1.1-2.41-1.28l0-1.06c.91,0,1.24-1,2.61-.85,1.37,0,1.49,1.1,2.41,1.12Z"/><path class="cls-12" d="M803.32,1846.58c-.92,0-1.25,1-2.47,1s-1.64-1.11-2.56-1.13l0-1.07c.91,0,1.24-1,2.46-1s1.5,1.1,2.56,1.13Z"/><path class="cls-12" d="M807.91,1845.63c-.92.13-.95,1.2-2.32,1.47s-1.81-.66-2.73-.53l-.28-1.07c.92-.13.94-1.2,2.32-1.47s1.81.66,2.73.53Z"/><path class="cls-12" d="M812.35,1844.37c-.92.28-.79,1.35-2.17,1.62-1.22.28-1.81-.65-2.73-.37l-.28-1.07c.92-.28.8-1.35,2.17-1.62s1.82.65,2.74.37Z"/><path class="cls-12" d="M816.52,1842.34c-.93.44-.65,1.51-1.88,1.94s-2-.36-2.74-.07l-.43-1.08c.77-.44.65-1.5,1.88-1.93,1.23-.58,2,.35,2.74.07Z"/><path class="cls-12" d="M820.24,1839.7c-.78.43-.35,1.51-1.58,2.09-1.08.73-2,0-2.75.39l-.59-.93c.78-.44.35-1.51,1.58-2.09,1.24-.73,2,0,2.75-.39Z"/><path class="cls-12" d="M823.66,1836.74c-.78.59-.19,1.52-1.28,2.4s-2,.1-2.6.7l-.74-.93c.77-.59.19-1.52,1.28-2.41,1.08-.73,2-.1,2.6-.69Z"/><path class="cls-12" d="M826.64,1833.31c-.63.59.11,1.53-.82,2.42s-1.84.41-2.46,1l-.9-.78c.63-.6,0-1.53.82-2.42.94-.89,1.84-.41,2.46-1Z"/><path class="cls-12" d="M829,1829.56c-.48.75.26,1.53-.52,2.58s-1.85.56-2.32,1.31l-1-.63c.47-.75-.27-1.53.52-2.58s1.84-.71,2.32-1.31Z"/><path class="cls-12" d="M830.79,1825.5c-.47.75.42,1.53-.06,2.58-.64,1.21-1.7.87-2.17,1.62l-1.06-.48c.48-.75-.42-1.53.07-2.59s1.69-.87,2.17-1.62Z"/><path class="cls-12" d="M832,1821.26c-.33.91.72,1.39.23,2.6s-1.54,1-1.87,1.93l-1.21-.34c.33-.9-.73-1.38-.24-2.59s1.55-1,1.88-1.93Z"/><path class="cls-12" d="M832.53,1816.86c-.17.91.88,1.24.7,2.61-.18,1.21-1.4,1.18-1.58,2.09l-1.21-.18c.17-.91-.88-1.24-.7-2.46s1.4-1.33,1.57-2.09Z"/><path class="cls-12" d="M832.49,1812.44c0,.92,1,1.1,1,2.47,0,1.21-1.1,1.49-1.27,2.4l-1.22,0c0-.91-1-1.09-1-2.46,0-1.22,1.26-1.49,1.28-2.41Z"/><path class="cls-12" d="M831.69,1808c.13.92,1.19.94,1.31,2.32.12,1.22-1,1.65-.82,2.41l-1.22.12c-.13-.91-1.2-.94-1.32-2.31-.12-1.22,1-1.65.83-2.42Z"/><path class="cls-12" d="M830.42,1803.87c.28.92,1.35.79,1.63,2s-.66,1.65-.53,2.57l-1.22.28c-.13-.92-1.35-.8-1.63-2s.66-1.66.53-2.58Z"/><path class="cls-12" d="M828.39,1799.86c.44.77,1.51.64,1.93,1.87s-.5,1.82-.06,2.59l-1.08.43c-.28-.77-1.51-.65-1.93-1.88-.43-1.07.5-1.81.06-2.58Z"/><path class="cls-12" d="M825.74,1796.14c.44.77,1.51.49,2.25,1.57s-.2,1.83.24,2.6l-1.08.58c-.44-.77-1.51-.49-2.25-1.58s.2-1.82-.24-2.59Z"/><path class="cls-12" d="M822.78,1792.71c.59.78,1.67.2,2.41,1.28s.1,1.83.69,2.61l-.93.73c-.59-.62-1.67-.19-2.4-1.27-.89-.94-.11-1.83-.7-2.61Z"/><path class="cls-12" d="M819.2,1789.88c.59.63,1.67,0,2.57.83s.41,1.83,1,2.46l-.93.74c-.59-.63-1.67-.05-2.56-1s-.42-1.84-1-2.46Z"/><path class="cls-12" d="M815.3,1787.5c.75.48,1.68-.11,2.73.53s.56,1.68,1.31,2.31l-.63.9c-.75-.48-1.68.26-2.73-.53s-.57-1.68-1.31-2.31Z"/><path class="cls-12" d="M811.09,1785.57c.9.48,1.53-.42,2.73.22s.87,1.7,1.78,2l-.64,1c-.9-.48-1.53.42-2.73-.22s-.87-1.7-1.63-2Z"/><path class="cls-12" d="M806.55,1784.39c.9.33,1.53-.57,2.74-.09s1,1.55,1.93,1.88l-.48,1c-.91-.32-1.54.57-2.74.09s-1-1.55-1.94-1.88Z"/><path class="cls-12" d="M802,1783.67c.91.17,1.39-.73,2.75-.54s1.34,1.4,2.25,1.57l-.34,1.06c-.9-.17-1.38.73-2.75.54s-1.33-1.4-2.24-1.58Z"/><path class="cls-12" d="M797.28,1783.55c.91,0,1.24-1,2.61-.85s1.49,1.25,2.4,1.28l-.18,1.21c-.91,0-1.24,1-2.61.85-1.37,0-1.49-1.1-2.4-1.28Z"/><path class="cls-12" d="M792.7,1784.19c.91-.13,1.09-1.19,2.46-1.15,1.37-.12,1.65,1,2.57.82l.12,1.22c-.91,0-1.09,1-2.46,1.16s-1.66-1-2.57-1Z"/><path class="cls-12" d="M788,1784.08c.91,0,1.24-1,2.61-1s1.5,1.1,2.56,1.13l0,1.06c-.92,0-1.25,1-2.62,1s-1.49-1.1-2.56-1.13Z"/><path class="cls-5" d="M985.28,1554.23a5.69,5.69,0,0,1-2.72,11l-23-5a5.5,5.5,0,0,1-4.1-6.8,5.61,5.61,0,0,1,6.8-4.09Z"/><path class="cls-12" d="M831.81,1821.41a3.08,3.08,0,0,1-1-2.46c.18-.76.81-1.81,1.58-1.94-.76-.17-1.19-1.1-1.32-2.16a2.41,2.41,0,0,1,1.27-2.1,2.53,2.53,0,0,1-1.62-2,2.59,2.59,0,0,1,1-2.26,2.45,2.45,0,0,1-1.94-1.73,2.75,2.75,0,0,1,.67-2.42,2.2,2.2,0,0,1-2.1-1.42,2.38,2.38,0,0,1,.37-2.43,2.77,2.77,0,0,1-2.41-1.12,3.07,3.07,0,0,1,.07-2.59,2.55,2.55,0,0,1-2.57-.83,2.86,2.86,0,0,1-.4-2.44,2.83,2.83,0,0,1-2.57-.52,2.52,2.52,0,0,1-.7-2.46,2.6,2.6,0,0,1-2.59-.06,2.73,2.73,0,0,1-1-2.31,3,3,0,0,1-2.59.24,2.56,2.56,0,0,1-1.32-2.17,2.31,2.31,0,0,1-2.6.7,2.28,2.28,0,0,1-1.63-1.87,2.26,2.26,0,0,1-2.46,1,2.87,2.87,0,0,1-1.79-1.72,2.44,2.44,0,0,1-2.31,1.31,18.8,18.8,0,0,1-2-.81,2.3,2.3,0,0,1-2,1.62,3,3,0,0,1-2.26-1.12,2.61,2.61,0,0,1-1.88,1.93,2.78,2.78,0,0,1-2.41-.82,2.63,2.63,0,0,1-1.58,2.09,2.28,2.28,0,0,1-2.42-.36,2.38,2.38,0,0,1-1.28,2.25,2.33,2.33,0,0,1-2.43-.06,2.79,2.79,0,0,1-1,2.41,2.14,2.14,0,0,0-3,2.82,2.87,2.87,0,0,1-2.45.55,2.65,2.65,0,0,1-.22,2.58,2.6,2.6,0,0,1-2.3.86,2.27,2.27,0,0,1,.24,2.59,2.14,2.14,0,0,0-1.62,3.77,2.86,2.86,0,0,1-2,1.47,2.59,2.59,0,0,1,.86,2.46,2.55,2.55,0,0,1-1.72,1.78,2.65,2.65,0,0,1,1.16,2.31,2.35,2.35,0,0,1-1.42,2,2.61,2.61,0,0,1,1.47,2.17,2.56,2.56,0,0,1-1.13,2.25,2.22,2.22,0,0,1,1.78,1.87,2.79,2.79,0,0,1-.82,2.42c.77-.13,1.66.65,2.1,1.57a2.34,2.34,0,0,1-.52,2.43,2.38,2.38,0,0,1,2.25,1.27,2.75,2.75,0,0,1-.21,2.43,2.34,2.34,0,0,1,2.41,1,2.23,2.23,0,0,0,2.81,3.11,2.45,2.45,0,0,1,.55,2.45,2.73,2.73,0,0,1,2.58.37,2.62,2.62,0,0,1,.86,2.31,2.25,2.25,0,0,1,2.59-.09,2.43,2.43,0,0,1,1.16,2.16,2.47,2.47,0,0,1,4.07,1.63,2.19,2.19,0,0,1,2.46-.86,3.11,3.11,0,0,1,1.78,1.88,2.35,2.35,0,0,1,2.31-1.17c.76.18,1.81.81,1.94,1.58a2.38,2.38,0,0,1,2.17-1.47,2.42,2.42,0,0,1,2.1,1.27,2.69,2.69,0,0,1,2-1.78,2.61,2.61,0,0,1,2.26,1,2.67,2.67,0,0,1,1.73-2.09,2.74,2.74,0,0,1,2.42.67,2.53,2.53,0,0,1,1.43-2.24,2.22,2.22,0,0,0,3.55-2.2,2.36,2.36,0,0,1,2.44-.09,2.57,2.57,0,0,1,.83-2.57,2.75,2.75,0,0,1,2.44-.39,2.38,2.38,0,0,1,.37-2.58,3.08,3.08,0,0,1,2.46-.86,2.59,2.59,0,0,1,.07-2.58,2.15,2.15,0,0,1,2.16-1.17,2.47,2.47,0,0,1,1.62-4.07,2.41,2.41,0,0,1-.7-2.45A3.28,3.28,0,0,1,831.81,1821.41Zm-31.47,22.51a28.62,28.62,0,1,1,29.17-27.9A28.45,28.45,0,0,1,800.34,1843.92Z"/><path class="cls-5" d="M801.77,1786.7A28.62,28.62,0,1,0,829.51,1816,28.55,28.55,0,0,0,801.77,1786.7Zm-1.34,53.42a24.81,24.81,0,1,1,25.27-24.19A24.83,24.83,0,0,1,800.43,1840.12Z"/><path class="cls-12" d="M801.67,1790.51a24.81,24.81,0,1,0,24,25.42A24.82,24.82,0,0,0,801.67,1790.51Zm21.76,19-4.72,0A18.72,18.72,0,0,0,804.25,1797l-1.25-4.75A23.14,23.14,0,0,1,823.43,1809.48Zm-37.28,23.27a22.67,22.67,0,0,1-8.07-18.17,14,14,0,0,1,.22-2.58l4.33,3.16a18.5,18.5,0,0,0,5.31,12.92Zm-2.44-24.11-4.56-.27a23,23,0,0,1,21.26-16.22l-1.48,4.69A18.65,18.65,0,0,0,783.71,1808.64Zm16.92,29.65a22,22,0,0,1-9.53-2.37l4.34-3.09a18.92,18.92,0,0,0,10.65.27l4,3.3A21.86,21.86,0,0,1,800.63,1838.29Zm14.43-4.81-1.56-4.61a18,18,0,0,0,6.11-12.64l4.48-2.93a13.33,13.33,0,0,1,.1,2.44A22.83,22.83,0,0,1,815.06,1833.48Z"/><path class="cls-5" d="M800.63,1832.35A17,17,0,1,0,784,1814.89a17.12,17.12,0,0,0,16.62,17.46Z"/><path class="cls-12" d="M800.85,1823.22a8,8,0,0,0,8.12-7.86,7.92,7.92,0,0,0-15.83-.4,8,8,0,0,0,7.71,8.26Z"/><polygon class="cls-12" points="798.43 1816.46 803.27 1811.87 836.8 1847.12 831.96 1851.71 798.43 1816.46"/><polygon class="cls-12" points="817.22 1850.89 850.3 1842.89 851.55 1847.94 818.31 1855.94 817.22 1850.89"/><path class="cls-13" d="M817.85,1850l2.14-.55,1.52,6.43-2.3.55Zm21.44-5.1,2.15-.55,1.51,6.43-2.3.55Zm7.81-1.93,2.15-.56,1.51,6.44-2.29.55Zm-21.44,5.25,2.14-.56,1.52,6.44-2.3.55Z"/><path class="cls-12" d="M958.5,1559.34a5.21,5.21,0,0,1,5-9.16h0a5.08,5.08,0,0,1,2,7,4.93,4.93,0,0,1-6.91,2.11Z"/><polygon class="cls-13" points="960.53 1630.35 975.4 1626.46 976.1 1629.06 961.23 1632.95 960.53 1630.35"/><polygon class="cls-13" points="977.28 1684.97 992.01 1680.47 992.86 1683.08 978.13 1687.58 977.28 1684.97"/></g><g id="Ebene_1" data-name="Ebene 1"><path class="cls-14" d="M486.35,1127.48c-141.16,209.92-204.12,451.86-177.66,704.29l117.14-1.41C362.93,1592.88,381.89,1350.79,486.35,1127.48Z"/><path class="cls-15" d="M613.42,1565.19s8.89-31.76,11.1-75.44c2.82-44.08-1.79-99.66-17-155.38-14-56-37.68-107.45-62.28-144.94-23.87-37.48-48.65-61-47.72-61.06-.31.45,32,2.38,76.16,28.08a249.67,249.67,0,0,1,67.15,58.64,263,263,0,0,1,49.57,98.82A260.1,260.1,0,0,1,695,1423.55a244,244,0,0,1-29.78,82.18C639.5,1548.46,613.42,1565.19,613.42,1565.19Z"/><path class="cls-15" d="M904,1294s-19.87-24.92-53-52.11C818,1214,771.55,1184.7,718.91,1162.81c-52.17-23-106.31-36.36-150-40.94-43.27-5.1-76.1-1.37-75.59-2,.19.48,20.35-21.27,66.05-37.43a249,249,0,0,1,84.89-13.13,279.61,279.61,0,0,1,106.37,22.88,275.41,275.41,0,0,1,89,61,241.84,241.84,0,0,1,47.5,69.27C905.87,1265.73,904,1294,904,1294Z"/><path class="cls-15" d="M806.44,1011.28s-22.07-5.36-52.47-6.12c-30.68-1.16-69.42,2.78-108.32,13.73-39.1,10.13-75,26.59-101.31,43.43-26.25,16.36-42.81,33.09-42.82,32.48.32.19,1.85-21.17,20-50.72a175.84,175.84,0,0,1,41.25-45.27,194.35,194.35,0,0,1,69.11-34.3,191.7,191.7,0,0,1,76.39-4.81,170.79,170.79,0,0,1,57,18.34C794.94,994.34,806.44,1011.28,806.44,1011.28Z"/><path class="cls-15" d="M280.82,1458s-1.26-26.94,5.83-62.12c6.64-35.6,22.22-79,47.18-120.47,23.91-42,55.43-78.46,84.86-103.7,28.78-25.36,55.49-39.47,54.68-39.66.17.42-28.7-4.1-72.91,8.1a235.35,235.35,0,0,0-71.29,34.11c-24.22,17.08-47.59,40.68-64.11,69.37A197.13,197.13,0,0,0,238.28,1330a181.69,181.69,0,0,0,9.21,71C261.31,1439.8,280.82,1458,280.82,1458Z"/><path class="cls-15" d="M81,1187.83s22.67-16.12,57.45-31.56c34.89-16,81.84-30.65,132.75-38.23,50.7-8.52,101.17-9,140.61-4.52,39.16,4,67.31,13.14,67,12.51-.26.35-13.52-20.73-50.43-42.14a239.25,239.25,0,0,0-72.05-26.32,279.44,279.44,0,0,0-98.43-1.69,265.58,265.58,0,0,0-91,31.93c-25,14.41-43.38,31.09-56.18,46.24C85.2,1165,81,1187.83,81,1187.83Z"/><path class="cls-15" d="M225.47,981.08A275.33,275.33,0,0,1,273,986c27.27,4.82,60.58,15.2,92.57,31.19,32.35,15.38,60.61,35.2,80.25,53.52,19.74,17.92,30.86,34.33,31,33.85-.31.1,2.75-17.2-7.14-44.11a140.38,140.38,0,0,0-27-43.74,173,173,0,0,0-53.78-40.22,187,187,0,0,0-66.29-18.12,170.74,170.74,0,0,0-54,3.92C239.1,969.75,225.47,981.08,225.47,981.08Z"/><path class="cls-14" d="M3152.74,1264.33c330.42,220.8,587.19,529.51,740.46,901.71l-146.76,61.68C3649.53,1856.9,3447.38,1524.07,3152.74,1264.33Z"/><path class="cls-15" d="M3317.52,1953.83s-34.49-40.2-69.46-100.9c-36-60.94-71.28-142.24-93.41-229.51-23.93-87-32.38-172.78-29.43-239.3,2-66.1,15.49-112.95,14.33-112.49.71.48-38.08,20.78-74,81.22-17.54,30.09-33.41,70.25-40.29,119.62-7,49.08-4.92,107.36,11.23,167,15.65,59.74,43.67,114.29,75.11,157.94a462,462,0,0,0,97.65,100.29C3272.73,1944.28,3317.52,1953.83,3317.52,1953.83Z"/><path class="cls-15" d="M2756,1727.39s6.34-46.13,27.46-102.66c20.59-57.45,56.68-124.26,106-183.91,47.95-60.91,105.41-109.33,156.4-139.57,50.06-30.75,93.65-43.32,92.52-44,.13.78-41-19.08-109.76-17.15a303.62,303.62,0,0,0-115.29,27.54A316.74,316.74,0,0,0,2798,1357.9c-33.44,41.22-54.73,89.4-65.66,134.88a362.67,362.67,0,0,0-8,124C2732.85,1688.33,2756,1727.39,2756,1727.39Z"/><path class="cls-15" d="M2707,1302.07s23.5-19.59,60.75-37.2c37.31-18.31,88.4-33.79,144.87-39.41,56.11-6.9,113-3.11,158.06,6.48,44.71,8.91,77.65,23.63,77.22,22.76-.25.45-17.93-29-62.33-61a297.9,297.9,0,0,0-84.7-41.73c-33.76-10.43-72.78-15.6-111.27-11-38.6,4.2-72.43,17.63-98.57,34.7a195.61,195.61,0,0,0-57.43,57C2708.8,1271.8,2707,1302.07,2707,1302.07Z"/><path class="cls-15" d="M3652.19,1621.09s-18.31-38.87-53.07-84.87c-34.52-46.87-85.89-99.88-147.54-145.12-60.71-46.49-126.82-81.09-182-100.85-54.51-20.31-98.13-25.79-97.27-26.51.09.69,32.68-21.4,96.67-28.14,31.71-3.08,70.9-1.61,113.83,9.59a377.83,377.83,0,0,1,227.95,171.37,331,331,0,0,1,40.88,105.6C3663,1584.69,3652.19,1621.09,3652.19,1621.09Z"/><path class="cls-15" d="M3701.48,1129.51s-40.08-10.52-94.74-13.5c-55.18-3.69-124.41,1-193.33,18-69.35,15.49-132.51,42.16-178.24,70-45.74,27-74,55.21-74.12,54.16.59.35,1.53-36.73,31.65-87.15a275.25,275.25,0,0,1,70.22-76.48,322.42,322.42,0,0,1,121.2-55.9c47.34-11.21,95.29-11.11,136.76-4.21a336.78,336.78,0,0,1,104,35C3679.4,1099.41,3701.48,1129.51,3701.48,1129.51Z"/><path class="cls-15" d="M3369.29,915s-25.66,11-55.43,32.82c-30.36,21.65-64.13,54.46-92.14,94.52-28.9,39.38-49.43,82.84-60.36,119.48-11.33,36.14-13.05,65.44-13.58,64.84.46,0-16.11-22.88-23.65-66.42a215.67,215.67,0,0,1,1.28-76.65,219.56,219.56,0,0,1,37.23-86.25,212.78,212.78,0,0,1,69.1-61.71,202,202,0,0,1,70.12-23.82C3344,906.34,3369.29,915,3369.29,915Z"/><path class="cls-16" d="M1202.73,473.19a1100.23,1100.23,0,0,0-357.14,80.06,1426.5,1426.5,0,0,1,28-168.72,1481.65,1481.65,0,0,0-141.79-105.6,1397.51,1397.51,0,0,1,456.79-102.4Q1195.65,324.85,1202.73,473.19Z"/><path class="cls-17" d="M1038,404s161-25,165,69V177Z"/><path class="cls-16" d="M2495.27,473.19a1100.23,1100.23,0,0,1,357.14,80.06,1426.5,1426.5,0,0,0-28-168.72,1481.65,1481.65,0,0,1,141.79-105.6,1397.51,1397.51,0,0,0-456.79-102.4Q2502.35,324.85,2495.27,473.19Z"/><path class="cls-17" d="M2660,404s-161-25-165,69V177Z"/><path class="cls-18" d="M1849,37.15a5057.66,5057.66,0,0,0-859.06,74.27L1041,404a4707.59,4707.59,0,0,1,1616,0l51.06-292.58A5057.66,5057.66,0,0,0,1849,37.15Z"/><path class="cls-19" d="M1234.35,272.57c-19.76,18.82-42,37.49-69.7,42.27-10.76,1.87-22.34.63-31.55-5.58S1118.72,292.69,1117,282c-5.46-33.74,7.39-65.25,26.84-90.71,19.16-25.08,46.91-47.74,80.26-52.26,8.76-1.19,16.08-.81,21.78,1.37s8.85,5.52,9.46,10q.81,5.86-3,13.61t-8.29,8.38q-3,.42-5.57-3.67-4.2-6.46-8.39-8.59c-2.8-1.41-6.85-1.7-12-1-16.57,2.29-31.17,13.66-42.35,24.47-13.46,13-25.71,29.06-32.62,46.73-5.73,14.64-9.47,30.07-6.82,46.49,2.38,14.72,13.11,23.55,28.25,20.84,7.25-1.3,15.63-4.37,24.75-9.36a157.7,157.7,0,0,0,28.68-20.73c6.38-5.7,14.8-13,17.44-21.77,1.69-5.57,2.39-13.38,2.44-22.86,0-5.15,3.62-8.25,10.77-9.25,7.67-1.08,11.82.6,12.42,5q.42,3-1.93,11.14a148.54,148.54,0,0,0-5.12,23.65q-1.29,10.5-1.59,24.14t.51,19.28A81.9,81.9,0,0,0,1257,311.4a22.12,22.12,0,0,1,.82,3.37,11.34,11.34,0,0,1-1.92,7.66,9.22,9.22,0,0,1-6.77,4.56,15.43,15.43,0,0,1-9.91-2.2c-3.42-1.93-5.53-4.49-5.78-7.25-.9-9.83.24-20.9.64-31.32C1234.26,280.38,1234.37,275.84,1234.35,272.57Z"/><path class="cls-19" d="M1418.92,141.89q-.33.13-6.32.53a49.62,49.62,0,0,0-12.09,2.32,81.56,81.56,0,0,1-10.92,2.89,70.17,70.17,0,0,0-7.19,1.64c-3.24.91-9.77,2-19.54,3.14-9.25,1.11-19.57,2.09-27.43,6-3.5,1.74-5.32,5.76-5.18,10.92a83.57,83.57,0,0,1-.85,13.23c-1.39,9.47-2.65,19.08-2.19,28.67l1.73-.1c3.6-.22,10.76-1.57,21.5-4s18.76-4.48,24-6.22q16.26-5.61,25.08-6.52c9.53-1,14.54.91,15,5.69.6,5.85-2.25,9.84-8.41,11.75-12.68,3.91-26.09,6.47-39.11,9.41-11.73,2.65-31.53,4.27-38.42,11.54-1.43,1.52-2.29,9-2.73,20.24s-.45,18.42-.07,21.49l.15,1.17q1.23,5.28,7.94,5.2l2-.14a76.65,76.65,0,0,0,14.58-2.74c8.48-2.22,12.73-3.33,21.22-5.51,7.89-2,16-4.06,24-6.46,10-3,16.48-4.89,19.26-5.18a13.34,13.34,0,0,1,7.3,1.79q4.14,2.13,4.69,7.59.4,4-1.47,5.66c-9,4.94-19.12,6.81-28.93,8.46-15.95,2.68-32.23,6.48-48,10.58-10.87,2.82-18.11,4.6-21.61,5q-13.07,1.65-16.62.11t-5.22-9.14l-.92-3.58,0-.42c-.15-1.14.3-3.59,1.11-7.2,2.13-9.49,2.4-19.84,2.87-29.68.55-11.37.78-23,.65-34.26,0-2.84.18-6.43.51-10.59.74-13.68,1.58-27.44,0-41-.06-.49-1-1.72-2.8-3.66a6.4,6.4,0,0,1-1-1,35.84,35.84,0,0,0-2-3.87,8.23,8.23,0,0,1-1.25-3.42c-.06-.43-.08-.65-.14-1.07q-.3-2.35,2.6-4.56a12.07,12.07,0,0,1,5.79-2.57l.35,0a106.27,106.27,0,0,1,11.19-.73l.46-.06q2.67-.33,25.47-5.09c18.23-3.78,36.31-8.4,54.34-13.11,2.21-.58,3.55-.9,4-.95l1.73-.28q9-1.47,12.66.4c2.43,1.23,4.44,4.15,5.08,8.09.31,1.86-.62,4-2.44,6.09S1420.06,141.63,1418.92,141.89Z"/><path class="cls-19" d="M1562.23,148.64q-1-14.28-9.18-16.9a51.13,51.13,0,0,0-20.18-1.73c-15.17,1.49-30.08,5.2-43.82,12.49-8.46,4.49-18.83,12.55-18,23.23.43,5.92,4,11.22,10.17,14.93,11.35,6.83,26.34,8.9,39.41,11.6,14.23,3,29.06,5.85,41.65,13,8.33,4.72,13,11.43,13.33,19,.47,10.3-7.7,19.79-14.91,26.42a126,126,0,0,1-38.35,23.64c-12.15,4.89-25.43,9.13-38.93,10.39-9,.84-16,.41-20.83-1.19s-7.43-3.93-7.72-7a20,20,0,0,1,1.33-8.08q1.63-4.86,3.78-5.05a14.74,14.74,0,0,1,4.68.32,72,72,0,0,0,24.24,2.15c16.15-1.45,31.06-7.7,44.21-15.54,8.15-4.86,22.52-12.91,22.36-23.93,0-2.78-2.92-5.76-7.93-7.9-11.78-5-25.43-7.23-38.15-10.09-15.46-3.47-35.84-6.51-47.48-17.57a33.36,33.36,0,0,1-10.58-21.23c-1.4-16.88,10.45-30.58,24.36-38.46a142.24,142.24,0,0,1,57-18.36c10.26-1.06,21.87-.49,31.39,4.1,7.45,3.59,11.39,8.11,11.72,13.2.16,2.43-.43,6-1.74,10.79S1568.77,148.2,1562.23,148.64Z"/><path class="cls-19" d="M1723.15,228.3c2.94-.09,4.47,1.58,4.58,5s-4,8.83-12,15.79c-8.43,7.34-18.25,12.46-28.28,17a85.65,85.65,0,0,1-29.66,7.24c-13.06.58-26.16-3.61-36.89-10.69-11.62-7.68-17.73-22-18.55-35.48-2-33.29,14.39-63.27,35.23-86.95,18.76-21.33,45.45-43.77,76.31-44.53,9.35-.23,17.05,2.13,22.83,7.32s8.76,11.33,8.95,18.44a78,78,0,0,1-.8,15.63q-1.07,5.73-7.08,9.83t-9.69,4.22a6.08,6.08,0,0,1-4.68-2,8.28,8.28,0,0,1-2.15-5.75c0-1.65.48-5.12,1.64-10.39a52.68,52.68,0,0,0,1.61-11.57c-.23-7.32-4-11-10.71-10.64-14.41.8-27.73,9.67-39,18.55a142.45,142.45,0,0,0-37.83,45.09c-8,15.31-14.41,31.41-13.64,49.08a34.9,34.9,0,0,0,10.55,24c6.29,6.17,18.32,9.09,26.7,8.42a91.1,91.1,0,0,0,23.64-5.73,108.82,108.82,0,0,0,25.33-13.52C1717.05,231.1,1721.71,228.35,1723.15,228.3Z"/><path class="cls-19" d="M1919.6,94.32a11.55,11.55,0,0,1,7.78,3.06,9.41,9.41,0,0,1,3.27,7.53c-.37,11-3.32,22.46-5.59,33.4a573.82,573.82,0,0,0-9.59,67.32c-1.27,14.82-2.72,30-3,44.8-.06,3.27-1.63,6.55-4.78,9.75s-5.87,4.78-8.19,4.76a10.46,10.46,0,0,1-7-2.9,9.13,9.13,0,0,1-3.22-7.18c0-2.58,1.34-11.81,3.68-27.42,1.41-9.43,3-19.17,3.16-28.72,0-3.43-.49-5.82-1.55-7.12s-2.84-2-5.36-2c-3.81,0-11.32.29-22.41,1.11-12,.88-19.54,1.43-22.52,1.44s-11.06.51-23.81,1.57-19.78,2-21.1,2.68-2.62,5.46-3.89,14.26a202.81,202.81,0,0,0-2.2,21.95c-.29,9.91-1.27,18.23-3.15,24.76s-4.39,9.81-7.53,9.87c-2.18,0-4.88-1.54-8.13-4.74s-4.93-6.44-5-9.74c-.06-2.87.78-7.83,2.4-14.8,3.88-16.76,5.88-34.22,8-51.3,3.18-25.42,5.71-51.07,7.91-76.69q.2-2.58,3.06-5.33a9,9,0,0,1,6.14-2.78c7.62-.12,11.58,5,11.62,15,0,9.57-2.06,19.42-3.81,28.79-2.21,11.88-3.41,20.57-3.33,25.88a5.36,5.36,0,0,0,2.36,4.81c1.54,1,5.2,1.46,10.91,1.38,16.87-.24,34-1.54,50.63-3.12,10.35-1,29-.64,34.37-8,1.88-2.56,3.6-11.72,5.28-24.17a346.32,346.32,0,0,0,3-39.42c0-1.56,1.24-3.44,3.67-5.56A11.5,11.5,0,0,1,1919.6,94.32Z"/><path class="cls-19" d="M2053.93,108.57q1,.8.83,5.31a18.1,18.1,0,0,1-1.35,7l1.32,4.58a192.74,192.74,0,0,0,6.61,21.19c2.81,7.32,5.43,15.44,8,24,5.39,17.15,11.2,34.31,18.76,50.55,4.9,10.5,10.46,21.4,18.42,30a62.76,62.76,0,0,1,6.63,7.65,7.87,7.87,0,0,1,1.13,4.76,10.85,10.85,0,0,1-3.77,7.81,10.43,10.43,0,0,1-8.1,2.83c-16.61-2.13-26.68-31.44-32.73-45.11-5-11.66-8.07-17.51-9.2-17.56-3.65-.17-11.64.43-23.63,2.12a311.85,311.85,0,0,0-33.17,6.13c-5.72,1.46-9.35,2.19-10.86,2.14q-2.83-.08-5.83-2.86a2.27,2.27,0,0,0-1.35-.47q-2.51-.06-11.15,13.7c-5.75,9.18-11.29,18.92-17.75,27.2-2.27,2.91-5.06,4.36-7.91,4.31q-3-.06-7.25-3.53t-4.15-7c0-2.29,1.44-5.38,4.22-9.24,5.63-7.8,11.37-15.55,17.12-23.29,13.94-18.92,27.51-38.08,39.73-58.18,10.41-17.11,20.3-36.06,33.36-50.83,4.5-5.09,8.27-7.59,10.68-7.5Q2050.26,104.54,2053.93,108.57Zm3.33,85.8c-4.14-10.43-7.26-21.35-10.46-32-3-10-6.1-20.19-9.66-30.12-6.65,11.75-13.8,23.2-20.92,34.67q-11,18.09-21.91,36.23c1.63-1.1,5.91-1.94,12.75-2.4,5.23-.35,9.85-.81,13.75-1.46C2032.92,197.45,2045.05,195.38,2057.26,194.37Z"/><path class="cls-19" d="M2184.42,138.91c-1.67,1.62-4.53,10.11-8,23-2.89,10.68-5.69,21.71-6.46,32.94q8-.63,16.37-.88c9.68-.32,14.52-.47,24.21-.74a161.7,161.7,0,0,0,16.28-2c7.07-1.15,11.89-1.59,14.4-1.38q13.51,1.17,12.59,11.48-.18,2-4.28,4.81a22.79,22.79,0,0,1-10.52,3.51c-10.05,1-20.54,1-30.78,1.24-11.68.28-24.29.07-35.49,2.26-3.67.72-6,1.81-6.77,2.87s-1.84,6.2-3.24,15.42-2.28,16.73-2.68,22.53c-.18,5.34-.27,8-.46,13.35q-.75,10.95-9,10.39a14.44,14.44,0,0,1-9.29-4.38,12.66,12.66,0,0,1-3.73-10.38c2.43-34.88,11.94-70.05,19.8-104.21q4.35-18.48,4.46-19.88a21.5,21.5,0,0,0-1-6.32c-1-3.56-1.46-6.06-1.37-7.43q.2-2.9,3.91-6c2.48-2.1,4.76-3.07,6.86-2.93l15.24,2.69c4.72.34,13.61.23,26.55-.16,15-.45,30.37-1.1,45.31.09,7.08.57,12.16,2.1,15.07,4.38s4.28,4.4,4.1,6.33a12,12,0,0,1-4.58,8.49,11.41,11.41,0,0,1-8.38,3,24.43,24.43,0,0,1-4.25-.81,133.08,133.08,0,0,0-19.05-3.6,305.79,305.79,0,0,0-32.31-.52C2194.68,136.26,2186.07,137.31,2184.42,138.91Z"/><path class="cls-19" d="M2324.79,151.29c-1.72,1.56-4.85,10-8.75,22.74-3.23,10.58-6.38,21.52-7.51,32.72,5.33-.25,10.79-.37,16.41-.36,9.69,0,14.53,0,24.23,0a158.77,158.77,0,0,0,16.35-1.51c7.11-.92,11.94-1.22,14.45-.92q13.47,1.59,12.23,11.87-.24,2-4.43,4.67a22.79,22.79,0,0,1-10.64,3.18c-10.08.67-20.58.35-30.83.27-11.69-.1-24.3-.71-35.56,1.13-3.7.6-6.08,1.61-6.87,2.65s-2,6.14-3.72,15.31-2.81,16.65-3.39,22.43c-.36,5.33-.53,8-.89,13.33q-1.1,10.92-9.37,10.1a14.46,14.46,0,0,1-9.16-4.68,12.61,12.61,0,0,1-3.4-10.49c3.53-34.79,14.15-69.64,23.09-103.53q4.93-18.33,5.09-19.72a21.61,21.61,0,0,0-.78-6.35c-.84-3.6-1.27-6.11-1.13-7.47q.28-2.9,4.09-5.92t7-2.72c6.06,1.26,9.09,1.9,15.15,3.18,4.72.49,13.61.65,26.57.67,15.05,0,30.41-.13,45.32,1.54,7.06.79,12.09,2.48,14.94,4.85s4.14,4.53,3.9,6.45a12.07,12.07,0,0,1-4.85,8.35,11.45,11.45,0,0,1-8.48,2.7,23.93,23.93,0,0,1-4.22-.95,134,134,0,0,0-19-4.2,306.44,306.44,0,0,0-32.3-1.54C2335.14,149,2326.49,149.74,2324.79,151.29Z"/><path class="cls-19" d="M2410.5,161.37a10.33,10.33,0,0,1-.61-5.5q.59-4.8,4.56-6.05c2.64-.82,10.23-.54,22.73.93,13.81,1.63,27.66,3.19,41.52,4,19.05,1.12,38.23,1.47,57.34,2a215.37,215.37,0,0,1,27.77,2.45,101.63,101.63,0,0,1,12.41,2.75,65.06,65.06,0,0,1,8.19,2.8,6.61,6.61,0,0,1,3.36,4.48,12.61,12.61,0,0,1,.7,5.08q-1.24,7.53-7,6.6c-2.53-.42-6-1.24-10.24-2.32s-10.39-2.2-18-3.39a280,280,0,0,0-28.72-2.82c-11.28-.61-18.12.23-19.33,2.31-6.31,10.88-8.58,27.25-12,40.67-4.74,18.45-9.5,37.22-12.28,56.09a84.08,84.08,0,0,0-.05,20.33,21.61,21.61,0,0,1,.08,2.62,14.54,14.54,0,0,1-3.9,8.09q-3.22,3.39-7,2.86a11.25,11.25,0,0,1-8.91-6.69c-3.38-8.44-1.19-20.5.28-30.39,4.5-30.2,13.76-60.06,22.11-89.41q1-3.56,1-3.66.51-3.63-3.75-4.22c-4.6-.65-13.47-1.34-26.58-2-9.32-.48-18.74-.78-28-1.92C2417.91,166,2412.66,164.1,2410.5,161.37Z"/><path class="cls-19" d="M2586.5,297.49c-1.37,6.72-3.87,11.64-8,13.93s-7.58,3.21-10.26,2.77q-8.25-1.37-6.57-11.66.66-4,5.6-9c3.3-3.27,6.37-4.68,9.22-4.2,1.86.31,4.07,1.47,6.61,3.5S2586.71,296.46,2586.5,297.49Zm5.32-31.53a51.5,51.5,0,0,1-7.64-2.15q-4.83-1.68-6.42-3.25c1.16-14.4,7.5-28.53,12.75-41.75,4.45-11.19,9.61-22.61,11.75-34.38,1.71-9.32,4.55-15.57,8.89-18.26s7.77-3.81,10.31-3.37A10,10,0,0,1,2627,166c1.74,1.83,2.57,3.86,2.14,5.5-4.39,16.4-14.47,34.51-21.86,51.62-4.51,10.32-8.81,21-11.06,32.08C2595.19,260.15,2593.74,263.74,2591.82,266Z"/><text/><path class="cls-14" d="M1640.51,1634.43c16.18,51.13,14.71,104.61-5.41,155.38l-23.54-6.7C1638.15,1737.43,1648.5,1686.32,1640.51,1634.43Z"/><path class="cls-15" d="M1589.25,1718a83.74,83.74,0,0,1,2.18-16.21A117.56,117.56,0,0,1,1625,1644a100.64,100.64,0,0,1,13.21-10c0,.11-6.6-1.25-17,1.65a53.49,53.49,0,0,0-17,8.46,58.11,58.11,0,0,0-23.14,40.16,52.84,52.84,0,0,0,1.19,18.62C1585,1713.13,1589.25,1718,1589.25,1718Z"/><path class="cls-15" d="M1546.52,1646.05a84.5,84.5,0,0,1,13.74-7.88,109.85,109.85,0,0,1,31.28-9.14,107.32,107.32,0,0,1,32.65-.27,96.13,96.13,0,0,1,15.37,3.71c-.07.08-2.86-5.51-11.13-11.35a50.49,50.49,0,0,0-16.36-7.36,57.65,57.65,0,0,0-22.79-1.08,58.54,58.54,0,0,0-21.52,7.77,52.81,52.81,0,0,0-13.64,11.73C1547.8,1640.1,1546.52,1646.05,1546.52,1646.05Z"/><path class="cls-15" d="M1582.76,1592.91a56.49,56.49,0,0,1,10.94,1.6,80.13,80.13,0,0,1,38.93,23.27,69.74,69.74,0,0,1,6.74,9.06,30,30,0,0,0-1.07-11.59,37,37,0,0,0-5.67-11.61,39.71,39.71,0,0,0-11.93-10.87,38.8,38.8,0,0,0-15.13-5.17,35.24,35.24,0,0,0-12.58.68C1586.07,1590,1582.76,1592.91,1582.76,1592.91Z"/><path class="cls-15" d="M1662.61,1714a62.3,62.3,0,0,0,2.46-13.17,80.86,80.86,0,0,0-2.46-27.49,81.71,81.71,0,0,0-19.75-37.28,42.36,42.36,0,0,1,14.23,5.66,48,48,0,0,1,12.39,11,46.5,46.5,0,0,1,8.86,17.85,42.85,42.85,0,0,1,.35,19.33,40.19,40.19,0,0,1-6,14.18C1667.61,1711.32,1662.61,1714,1662.61,1714Z"/><path class="cls-15" d="M1718.74,1669.06a73.85,73.85,0,0,0-9.74-9.67,103.22,103.22,0,0,0-24.54-15.16,105.86,105.86,0,0,0-28.09-8.62,96.94,96.94,0,0,0-14.25-1.07c0,.09,3.94-3.55,12.64-6a49.74,49.74,0,0,1,16.07-1.51,56.75,56.75,0,0,1,20,5,53.85,53.85,0,0,1,16.49,11.58,43.84,43.84,0,0,1,8.62,12.63C1719.23,1664.1,1718.74,1669.06,1718.74,1669.06Z"/><path class="cls-15" d="M1701.7,1618.4a55.83,55.83,0,0,0-9.86-1.57,72.75,72.75,0,0,0-20.5,1.39,69.49,69.49,0,0,0-19.32,6.69,59.86,59.86,0,0,0-8.23,5.31,22.61,22.61,0,0,1,4-8.74,30.9,30.9,0,0,1,8-7.57,36.74,36.74,0,0,1,13.2-5.38,38.62,38.62,0,0,1,14.44-.13,34.51,34.51,0,0,1,10.67,3.77C1699.62,1615.31,1701.7,1618.4,1701.7,1618.4Z"/></g></svg>